# xmcd
#
# Track frame offsets:
#	150
#	18940
#	36707
#	63630
#	86857
#	137295
#	157200
#	177515
#	216830
#
# Disc length: 3204 seconds
#
# Revision: 1
# Processed by: cddbd v1.5.2PL0 Copyright (c) Steve Scherf et al.
# Submitted via: audiograbber 1.83.01
#
DISCID=850c8209
DTITLE=Honor Among Thieves - Primordial Soup du Jour
DYEAR=1997
DGENRE=Blues
TTITLE0=Who's Been Talkin'
TTITLE1=Day In, Day Out
TTITLE2=All Your Love
TTITLE3=Mondo Andrando
TTITLE4=Rock Me
TTITLE5=Roll and Tumble
TTITLE6=Dog of Love
TTITLE7=Lickin' Stick
TTITLE8=Snatch It Back and Hold It
EXTD=Recorded live October 31, 1997 at the Harmony Bar and Grill, Madison, WI
EXTT0=
EXTT1=
EXTT2=
EXTT3=
EXTT4=
EXTT5=
EXTT6=
EXTT7=
EXTT8=
PLAYORDER=
